<svg width="960" height="720" viewBox="0 0 960 720" fill="none" xmlns="http://www.w3.org/2000/svg">
  <rect width="960" height="720" rx="44" fill="#F7F8FA"/>
  <circle cx="720" cy="158" r="96" fill="#FEE2E2"/>
  <circle cx="232" cy="590" r="118" fill="#F1F5F9"/>
  <path d="M130 575C236 480 334 458 456 513C584 570 692 548 831 429" stroke="#E5E7EB" stroke-width="2"/>
  <rect x="112" y="104" width="318" height="214" rx="24" fill="white" stroke="#E5E7EB" stroke-width="2"/>
  <rect x="138" y="130" width="108" height="16" rx="8" fill="#111827"/>
  <rect x="138" y="166" width="238" height="14" rx="7" fill="#E5E7EB"/>
  <rect x="138" y="196" width="184" height="14" rx="7" fill="#E5E7EB"/>
  <rect x="138" y="238" width="82" height="44" rx="14" fill="#B91C1C"/>
  <rect x="236" y="238" width="138" height="44" rx="14" fill="#F3F4F6"/>
  <rect x="548" y="96" width="282" height="176" rx="24" fill="#111827"/>
  <rect x="576" y="126" width="96" height="14" rx="7" fill="white"/>
  <rect x="576" y="160" width="210" height="12" rx="6" fill="#374151"/>
  <rect x="576" y="188" width="164" height="12" rx="6" fill="#374151"/>
  <rect x="576" y="220" width="76" height="22" rx="11" fill="#B91C1C"/>
  <rect x="676" y="220" width="76" height="22" rx="11" fill="#374151"/>
  <path d="M430 244C474 244 498 280 498 332V383H365V315C365 275 391 244 430 244Z" fill="#111827"/>
  <circle cx="432" cy="213" r="62" fill="#F8D7C0"/>
  <path d="M368 203C378 145 450 128 492 171C491 200 473 218 449 224C425 230 397 218 368 203Z" fill="#111827"/>
  <path d="M497 206C514 213 517 241 497 250" stroke="#F8D7C0" stroke-width="20" stroke-linecap="round"/>
  <path d="M410 226C424 238 443 238 457 226" stroke="#111827" stroke-width="8" stroke-linecap="round"/>
  <rect x="283" y="336" width="296" height="226" rx="38" fill="#B91C1C"/>
  <path d="M350 365H512" stroke="white" stroke-width="18" stroke-linecap="round" opacity="0.9"/>
  <path d="M356 412H506" stroke="#FECACA" stroke-width="14" stroke-linecap="round"/>
  <path d="M324 562L278 647" stroke="#111827" stroke-width="40" stroke-linecap="round"/>
  <path d="M536 562L592 647" stroke="#111827" stroke-width="40" stroke-linecap="round"/>
  <path d="M294 406L198 480" stroke="#F8D7C0" stroke-width="34" stroke-linecap="round"/>
  <path d="M570 405L666 482" stroke="#F8D7C0" stroke-width="34" stroke-linecap="round"/>
  <rect x="566" y="330" width="254" height="174" rx="24" fill="white" stroke="#E5E7EB" stroke-width="2"/>
  <rect x="592" y="358" width="88" height="18" rx="9" fill="#111827"/>
  <rect x="592" y="396" width="178" height="12" rx="6" fill="#E5E7EB"/>
  <rect x="592" y="424" width="134" height="12" rx="6" fill="#E5E7EB"/>
  <rect x="592" y="462" width="76" height="24" rx="12" fill="#B91C1C"/>
  <rect x="682" y="462" width="88" height="24" rx="12" fill="#F3F4F6"/>
  <path d="M198 480L272 456" stroke="#111827" stroke-width="18" stroke-linecap="round"/>
  <path d="M666 482L611 442" stroke="#111827" stroke-width="18" stroke-linecap="round"/>
  <rect x="230" y="590" width="398" height="58" rx="20" fill="#111827"/>
  <rect x="278" y="604" width="128" height="12" rx="6" fill="white"/>
  <rect x="278" y="626" width="78" height="10" rx="5" fill="#4B5563"/>
  <rect x="430" y="604" width="112" height="32" rx="16" fill="#B91C1C"/>
  <path d="M106 382H214" stroke="#B91C1C" stroke-width="6" stroke-linecap="round"/>
  <path d="M724 548H838" stroke="#B91C1C" stroke-width="6" stroke-linecap="round"/>
  <circle cx="808" cy="324" r="12" fill="#B91C1C"/>
  <circle cx="114" cy="486" r="10" fill="#111827"/>
  <circle cx="514" cy="92" r="9" fill="#B91C1C"/>
</svg>
